<svg xmlns="http://www.w3.org/2000/svg" width="515" height="627.82" viewBox="0 0 515 627.82">
  <title>Asset 1</title>
  <g id="Layer_2" data-name="Layer 2">
    <g id="Layer_1-2" data-name="Layer 1">
      <path d="M475.48,7.5h-436c-17.68,0-32,13.42-32,30V590.35c0,16.55,14.34,30,32,30h436c17.68,0,32-13.42,32-30V37.47C507.5,20.92,493.16,7.5,475.48,7.5Z" fill="#fff" stroke="#fff" stroke-miterlimit="3.87" stroke-width="15"/>
      <path d="M238.35,21.53A2.56,2.56,0,1,1,235.79,19,2.56,2.56,0,0,1,238.35,21.53Z" fill="#f2f2f2" stroke="#939598" stroke-miterlimit="3.87"/>
      <path d="M249.55,21.53a3.21,3.21,0,1,1-3.21-3.21A3.21,3.21,0,0,1,249.55,21.53Z" fill="#f2f2f2" stroke="#939598" stroke-miterlimit="3.87"/>
      <path d="M256.63,23.58a2.29,2.29,0,1,0-2.29-2.29A2.29,2.29,0,0,0,256.63,23.58Z" fill="#f2f2f2" stroke="#939598" stroke-miterlimit="3.87" stroke-width="6"/>
      <path d="M279.86,21.53a3.21,3.21,0,1,1-3.21-3.21A3.21,3.21,0,0,1,279.86,21.53Z" fill="#f2f2f2" stroke="#939598" stroke-miterlimit="3.87"/>
      <path d="M267.44,21.12a1.36,1.36,0,1,1-1.36-1.36A1.36,1.36,0,0,1,267.44,21.12Z" fill="#f2f2f2" stroke="#939598" stroke-miterlimit="3.87"/>
      <path d="M39.91,12.65H474.09c13.21,0,23.91,10,23.91,22.4v557c0,12.37-10.71,22.4-23.91,22.4H39.91c-13.21,0-23.91-10-23.91-22.4v-557C16,22.68,26.71,12.65,39.91,12.65Z" fill="#fff" stroke="#000" stroke-miterlimit="3.87" opacity="0.3" style="isolation: isolate"/>
    </g>
  </g>
</svg>
