<svg width="516" height="671" viewBox="0 0 516 671" fill="none" xmlns="http://www.w3.org/2000/svg">
<path d="M475.979 8H40.0214C22.3365 8 8 22.3365 8 40.0214V630.732C8 648.417 22.3365 662.753 40.0214 662.753H475.979C493.664 662.753 508 648.417 508 630.732V40.0214C508 22.3365 493.664 8 475.979 8Z" fill="white" stroke="white" stroke-width="15" stroke-miterlimit="3.86874"/>
<path d="M238.85 22.027C238.85 23.4417 237.704 24.5885 236.289 24.5885C234.874 24.5885 233.728 23.4417 233.728 22.027C233.728 20.6124 234.874 19.4656 236.289 19.4656C237.704 19.4656 238.85 20.6124 238.85 22.027Z" fill="#F2F2F2" stroke="#939598" stroke-miterlimit="3.86874"/>
<path d="M250.054 22.027C250.054 23.7994 248.617 25.2362 246.845 25.2362C245.072 25.2362 243.635 23.7994 243.635 22.027C243.635 20.2547 245.072 18.8179 246.845 18.8179C248.617 18.8179 250.054 20.2547 250.054 22.027Z" fill="#F2F2F2" stroke="#939598" stroke-miterlimit="3.86874"/>
<path d="M257.132 24.0765C258.395 24.0765 259.419 23.0524 259.419 21.7892C259.419 20.526 258.395 19.502 257.132 19.502C255.869 19.502 254.845 20.526 254.845 21.7892C254.845 23.0524 255.869 24.0765 257.132 24.0765Z" fill="#F2F2F2" stroke="#939598" stroke-width="6" stroke-miterlimit="3.86874"/>
<path d="M280.355 22.027C280.355 23.7994 278.918 25.2362 277.145 25.2362C275.373 25.2362 273.936 23.7994 273.936 22.027C273.936 20.2547 275.373 18.8179 277.145 18.8179C278.918 18.8179 280.355 20.2547 280.355 22.027Z" fill="#F2F2F2" stroke="#939598" stroke-miterlimit="3.86874"/>
<path d="M267.937 21.6222C267.937 22.3717 267.329 22.9793 266.58 22.9793C265.83 22.9793 265.223 22.3717 265.223 21.6222C265.223 20.8727 265.83 20.2651 266.58 20.2651C267.329 20.2651 267.937 20.8727 267.937 21.6222Z" fill="#F2F2F2" stroke="#939598" stroke-miterlimit="3.86874"/>
<path opacity="0.3" d="M40.4118 13.5H474.588C487.794 13.5 498.5 24.2166 498.5 37.4374V632.563C498.5 645.783 487.794 656.5 474.588 656.5H40.4118C27.2062 656.5 16.5 645.783 16.5 632.563V37.4374C16.5 24.2166 27.2062 13.5 40.4118 13.5Z" fill="white" stroke="black" stroke-miterlimit="3.86874"/>
</svg>
